<svg width="678" height="698" viewBox="0 0 678 698" fill="none" xmlns="http://www.w3.org/2000/svg">
<g clip-path="url(#clip0_27201_8)">
<path d="M146.04 219.124C136.339 214.862 126.515 211.45 117.556 206.446C92.536 192.478 74.566 172.233 65.6075 144.562C60.1299 127.659 65.9256 116.997 83.1358 112.736C109.64 106.247 135.226 110.261 160.228 120.056C162.189 120.834 164.151 121.559 165.423 122.054C162.172 111.162 157.648 100.501 155.917 89.4322C151.252 59.5686 159.875 32.6048 176.944 8.22247C182.05 0.920139 189.931 -1.50218 196.663 0.707965C204.119 3.14797 207.954 9.70768 208.431 19.5207C208.855 28.0961 208.855 36.8837 210.887 45.1408C216.506 67.7904 232.797 80.6269 253.736 88.3182C255.697 89.0255 258.86 87.7347 260.98 86.5501C291.019 69.5408 322.718 63.5646 356.52 72.7765C360.76 73.9434 361.82 71.9808 362.951 68.586C369.135 49.9049 378.314 32.3542 390.127 16.621C391.98 14.1484 394.049 11.8466 396.312 9.74305C405.464 1.06159 414.6 0.90246 423.682 9.74305C435.768 21.6425 444.656 35.8935 451.723 51.2054C455.77 60.046 459.039 69.1165 463.403 79.9197C468.881 74.4739 474.5 69.9829 478.74 64.431C487.133 53.4156 490.879 40.5437 491.25 26.6993C491.356 22.9509 491.25 19.1848 491.498 15.4364C491.624 12.3209 492.672 9.31318 494.509 6.7948C496.346 4.27642 498.89 2.36093 501.817 1.29145C504.537 -0.0204791 507.599 -0.447964 510.575 0.0688518C513.55 0.585668 516.289 2.0209 518.409 4.17349C521.926 7.49373 524.907 11.3411 527.243 15.5778C544.595 47.846 550.656 80.9982 534.082 116.573C542.227 114.628 549.525 112.665 556.928 111.145C573.441 107.873 590.459 108.139 606.862 111.923C624.408 115.706 631.352 127.712 625.84 145.057C617.005 173.046 598.151 193.274 574.28 209.346C573.555 209.841 572.796 210.265 572.071 210.743C571.912 210.867 571.841 211.114 571.347 211.998C573.467 213.766 575.729 215.764 577.99 217.691C594.936 232.102 605.255 250.861 613.754 271.053C618.579 282.386 624.23 293.349 630.663 303.852C637.519 315.115 648.333 322.276 660.366 327.315C670.243 331.47 677.629 337.075 677.93 348.833C678.248 361.316 671.233 368.972 660.931 374.17C656.374 376.195 651.708 377.966 646.955 379.474C653.316 389.252 660.295 398.57 665.791 408.701C686.376 446.645 678.972 492.369 647.185 517.476C636 526.316 627.483 535.033 621.617 548.754C612.004 571.297 593.734 588.289 575.941 604.892C538.375 639.944 493.981 666.857 445.539 683.944C422.887 692.025 399.846 699.15 375.232 697.718C361.67 697.207 348.603 692.486 337.843 684.209C321.516 671.426 316.198 653.656 318.707 633.977C321.145 614.758 326.181 595.892 328.814 576.672C331.588 556.392 333.001 535.9 334.733 515.46C335.086 511.429 334.15 507.274 333.62 501.015C324.114 508.246 315.544 513.975 307.893 520.747C290.471 536.13 277.218 554.854 266.634 575.435C240.466 626.304 187.81 652.896 131.003 643.896C104.233 639.653 80.9447 629.062 65.2541 606.182C59.8948 598.504 52.7915 592.208 44.5277 587.812C21.2745 574.604 9.34757 553.156 3.71097 527.837C-2.70309 498.911 -2.04931 470.55 14.5424 444.735C20.6915 435.188 28.6781 426.718 36.3643 418.214C78.4003 372.013 109.835 319.694 128.246 259.755C130.334 252.547 132.83 245.463 135.72 238.538C138.636 232.084 142.453 225.86 146.04 219.124ZM275.628 522.179C281.318 516.751 286.813 511.358 292.468 506.142C313.989 486.233 338.408 472.548 367.97 468.039C415.784 460.772 446.087 432.376 460.099 386.706C463.633 375.301 463.385 362.783 465.665 350.937C466.407 347.065 468.898 342.096 472.026 340.558C474.853 339.09 480.631 340.257 483.299 342.468C485.967 344.678 486.939 349.54 486.833 353.076C486.422 375.897 480.788 398.319 470.365 418.62C455.54 447.37 433.86 469.047 403.344 480.398C390.233 485.278 376.221 487.948 362.457 490.813C356.52 492.05 354.452 494.066 355.212 500.254C358.145 524.159 355.778 547.87 351.519 571.404C347.826 591.808 343.409 612.07 339.928 632.527C336.217 654.24 346.996 670.436 368.005 674.962C374.92 676.335 382.001 676.668 389.014 675.952C417.939 673.088 444.585 662.621 470.612 650.35C519.292 627.364 561.222 595.768 594.494 553.103C604.442 540.373 611.085 526.582 606.597 509.59C602.692 494.879 599.795 479.868 595.324 465.387C583.344 426.488 571.453 387.395 558.218 348.85C544.559 309.174 528.18 270.558 505.068 235.213C504.175 233.608 502.851 232.284 501.247 231.39C499.642 230.497 497.82 230.07 495.986 230.157C489.147 230.164 482.315 229.763 475.524 228.954C466.69 227.717 462.891 223.296 463.863 216.772C464.834 210.248 468.616 208.038 477.751 208.25C489.642 208.515 501.675 209.417 513.426 208.144C555.515 203.582 586.383 182.559 604.283 143.607C608.276 134.908 607.817 133.388 598.982 132.132C562.583 126.952 530.247 135.863 503.071 161.129C497.435 166.434 492.788 172.64 487.787 178.528C484.518 182.364 480.26 185.423 475.772 182.806C472.485 180.879 470.63 176.353 468.404 172.834C467.896 171.555 467.616 170.197 467.573 168.821C459.657 168.096 455.204 171.367 453.031 178.634C451.859 182.411 450.119 185.988 447.871 189.242C443.967 194.953 437.27 195.166 432.605 190.144C428.541 185.759 429.071 181.18 431.509 176.123C447.677 143.254 450.345 109.341 438.577 74.5799C432.317 56.5464 422.579 39.9182 409.917 25.6384C387.424 54.8124 374.931 86.6385 377.175 123.15C377.812 133.865 380.586 144.368 382.476 154.976C383.607 161.483 381.116 166.717 375.868 168.52C370.143 170.483 364.877 167.777 362.103 161.448C361.29 159.573 360.637 157.628 359.577 154.906C354.594 162.261 350.477 169.05 345.653 175.31C334.044 190.303 319.467 201.478 301.214 207.224C290.241 210.672 281.777 206.641 277.713 196.173C276.3 191.65 275.19 187.036 274.391 182.364C271.423 184.433 268.914 186.113 266.475 187.916C243.293 204.979 217.743 213.094 188.729 209.328C185.599 209.222 182.552 210.353 180.248 212.476C164.186 227.752 153.885 246.547 147.683 267.711C133.889 314.172 111.733 357.722 82.3053 396.218C80.397 398.747 78.7714 401.523 76.5627 404.811C79.1248 404.67 80.6797 404.811 82.1639 404.493C118.883 397.933 156.703 401.741 191.38 415.491C229.034 430.29 256.351 455.733 268.985 495.056C271.812 503.914 273.42 512.985 275.628 522.179ZM91.3875 605.51C92.4163 605.928 93.4194 606.406 94.3913 606.943C97.5719 608.941 100.558 611.257 103.845 613.025C124.553 624.182 146.782 625.614 169.469 622.343C203.042 617.498 228.875 600.507 244.83 570.29C265.892 530.401 249.23 474.157 208.996 448.714C167.19 422.192 121.656 417.171 74.195 427.726C48.8745 433.366 31.4169 448.944 24.4374 474.67C19.3839 493.376 21.7869 511.8 26.7521 530.171C33.0778 553.492 47.4785 568.91 70.555 576.531C88.4839 582.234 107.384 584.231 126.108 582.401C150.934 580.386 173.569 572.376 191.715 554.606C198.448 548.011 204.084 540.267 210.18 533.071C214.438 528.067 219.351 526.971 224.192 529.888C229.405 533.035 230.73 538.092 227.885 544.281C227.144 545.881 226.263 547.414 225.252 548.86C205.392 577.008 178.764 595.255 144.75 601.002C127.716 603.884 110.206 604.025 91.3875 605.51ZM627.783 505.789C629.05 505.153 630.283 504.45 631.476 503.685C650.118 490.53 659.483 462.487 654.005 437.84C649.234 416.357 636.335 400.179 621.246 385.221C615.309 379.297 609.195 373.533 603.488 367.398C599.477 363.101 598.346 357.939 602.286 352.988C606.226 348.037 611.386 348.214 616.669 350.654C618.86 351.662 620.857 353.112 623.048 354.19C632.165 358.646 641.53 360.149 651.054 355.658C653.528 354.508 655.507 352.298 658.263 350.177C657.09 349.403 655.875 348.694 654.623 348.055C625.575 336.58 607.64 314.779 596.897 286.171C590.571 269.356 582.761 253.354 570.481 239.899C555.479 223.562 544.86 220.68 527.137 228.778C576.223 315.168 603.169 409.638 627.783 505.789ZM191.804 186.449L192.316 188.005C194.437 188.217 196.557 188.482 198.677 188.606C222.001 190.003 242.144 181.922 259.196 166.646C269.797 157.116 279.233 146.189 289.11 135.81C293.316 131.407 298.139 129.922 303.246 133.423C308.352 136.924 308.953 142.016 306.515 147.568C304.377 152.395 301.585 157.027 300.118 162.049C297.892 169.687 296.584 177.573 294.818 185.353L297.114 186.749C301.479 184.468 305.949 182.471 310.172 179.854C324.679 170.783 331.818 155.1 342.932 143.13C353.534 131.672 357.668 119.985 356.59 104.85C355.831 94.153 356.926 93.9232 346.607 92.2258C301.461 84.7997 265.486 99.2982 239.529 137.454C226.524 156.55 214.403 176.512 191.804 186.449ZM160.087 199.444C152.524 183.797 156.359 175.893 172.014 171.296C177.686 169.616 183.022 166.876 189.489 164.224C177.107 152.318 162.305 143.224 146.092 137.56C128.752 131.516 110.205 129.768 92.0412 132.468C84.0193 133.529 83.7188 134.484 86.8993 141.733C88.8731 146.4 91.176 150.92 93.7905 155.259C108.933 179.712 131.091 193.645 160.087 199.444ZM511.906 33.595C508.673 60.3466 497.982 82.0237 475.401 95.9742C468.121 100.483 465.965 104.956 466.407 113.178C466.99 124.052 465.665 135.032 465.152 145.994C513.938 136.429 537.386 79.9374 511.906 33.595ZM237.285 105.151C223.344 97.9368 210.781 89.4321 201.946 76.5249C193.173 63.6631 188.078 48.6478 187.21 33.0999C162.472 76.0298 181.909 122.885 212.513 138.197L237.285 105.151Z" fill="black"/>
<path fill-rule="evenodd" clip-rule="evenodd" d="M369.949 283.463C369.949 283.452 369.948 283.44 369.948 283.428V283.481C369.948 283.475 369.949 283.469 369.949 283.463Z" fill="white"/>
<path fill-rule="evenodd" clip-rule="evenodd" d="M275.628 522.177C273.419 512.982 271.811 503.877 269.02 495.142C256.386 455.766 229.069 430.323 191.415 415.577C156.738 401.827 118.918 398.019 82.1989 404.579C80.7146 404.827 79.1597 404.756 76.5977 404.897C78.7887 401.591 80.432 398.833 82.3403 396.304C111.768 357.808 133.924 314.258 147.718 267.798C153.92 246.58 164.221 227.838 180.283 212.562C182.587 210.439 185.634 209.308 188.764 209.414C217.742 213.18 243.293 205.065 266.51 188.002C268.949 186.234 271.458 184.466 274.426 182.451C275.225 187.122 276.335 191.736 277.748 196.26C281.812 206.727 290.276 210.758 301.249 207.31C319.502 201.564 334.079 190.389 345.688 175.396C350.512 169.154 354.629 162.347 359.612 154.992C360.672 157.715 361.378 159.659 362.138 161.534C364.912 167.917 370.178 170.622 375.903 168.606C381.204 166.838 383.642 161.534 382.511 155.062C380.638 144.454 377.864 133.845 377.21 123.236C375.019 86.7246 387.512 54.8808 409.935 25.7422C422.597 40.0219 432.334 56.6502 438.595 74.6837C450.363 109.445 447.695 143.357 431.527 176.227C429.053 181.284 428.558 185.863 432.622 190.248C437.287 195.269 443.984 195.057 447.889 189.346C450.136 186.092 451.876 182.515 453.048 178.737C455.186 171.47 459.675 168.129 467.591 168.924C467.633 170.3 467.914 171.658 468.421 172.938C470.647 176.474 472.503 180.983 475.789 182.91C480.277 185.527 484.624 182.468 487.804 178.631C492.805 172.744 497.452 166.467 503.089 161.233C530.265 135.967 562.6 127.055 598.999 132.236C607.834 133.491 608.329 135.012 604.3 143.711C586.401 182.61 555.532 203.686 513.443 208.247C501.693 209.52 489.66 208.619 477.768 208.353C468.633 208.141 464.887 210.122 463.88 216.876C462.873 223.63 466.707 227.82 475.542 229.058C482.332 229.866 489.165 230.268 496.003 230.26C497.837 230.173 499.659 230.601 501.264 231.494C502.869 232.388 504.192 233.712 505.085 235.317C528.268 270.68 544.577 309.278 558.235 348.954C571.505 387.499 583.397 426.522 595.342 465.491C599.812 480.007 602.71 495.018 606.615 509.694C611.103 526.65 604.459 540.477 594.511 553.207C561.239 595.801 519.309 627.468 470.63 650.454C444.602 662.724 417.956 673.192 389.031 676.056C382.018 676.772 374.937 676.438 368.022 675.066C346.96 670.628 336.217 654.432 339.945 632.631C343.479 612.192 347.844 591.964 351.537 571.507C355.795 547.974 358.163 524.263 355.229 500.358C354.47 494.17 356.537 492.154 362.474 490.916C376.239 488.052 390.251 485.382 403.361 480.502C433.877 469.151 455.557 447.474 470.382 418.724C480.806 398.423 486.439 376 486.85 353.18C486.956 349.538 485.79 344.569 483.316 342.571C480.843 340.573 474.87 339.194 472.043 340.662C468.916 342.288 466.424 347.168 465.682 351.041C463.403 362.887 463.615 375.405 460.116 386.81C446.104 432.48 415.801 460.876 367.987 468.143C338.408 472.634 314.006 486.337 292.485 506.246C286.813 511.356 281.318 516.749 275.628 522.177ZM362.48 264.988C364.913 267.402 366.83 270.287 368.114 273.466C369.395 276.64 370.02 280.041 369.949 283.463C369.957 284.386 369.923 285.296 369.848 286.191C368.702 299.795 358.068 310.02 344.716 310.02C341.35 310.097 338.004 309.492 334.878 308.241C331.752 306.989 328.912 305.118 326.528 302.739C324.144 300.36 322.266 297.523 321.007 294.399C319.748 291.274 319.133 287.927 319.201 284.559C319.007 269.106 329.361 257.878 343.939 257.666C347.364 257.565 350.774 258.161 353.961 259.42C357.149 260.679 360.047 262.573 362.48 264.988ZM400.163 73.7112C401.754 68.7605 404.74 65.1182 410.588 65.2243L410.571 65.1712C411.968 65.1487 413.354 65.4326 414.63 66.003C415.906 66.5734 417.042 67.4164 417.958 68.4729C418.874 69.5294 419.548 70.7737 419.933 72.1185C420.317 73.4633 420.402 74.876 420.183 76.2573C419.848 79.0999 419.147 81.8872 418.098 84.5498C410.147 106.704 409.669 129.071 415.341 151.738C417.091 158.687 415.129 163.832 410.306 165.883C404.174 168.518 398.326 165.3 395.869 157.379C390.024 138.977 388.96 119.39 392.777 100.463C394.615 91.3924 397.424 82.5518 400.163 73.7112ZM199.825 266.277C200.832 270.102 201.587 273.988 202.087 277.911L202.105 277.858C201.504 293.736 191.291 304.645 177.562 302.736C172.835 301.898 168.501 299.568 165.193 296.087C155.51 285.656 157.242 266.454 168.02 257.189C170.516 255.077 173.494 253.612 176.69 252.925C179.886 252.237 183.202 252.347 186.345 253.245C189.488 254.143 192.362 255.802 194.713 258.075C197.064 260.347 198.82 263.164 199.825 266.277Z" fill="white"/>
<path fill-rule="evenodd" clip-rule="evenodd" d="M91.3874 605.51C110.206 604.024 127.716 603.883 144.75 601.001C178.764 595.255 205.392 577.008 225.252 548.859C226.262 547.413 227.143 545.881 227.885 544.28C230.73 538.091 229.405 533.035 224.192 529.887C219.351 526.97 214.438 528.119 210.18 533.07C204.031 540.266 198.448 548.011 191.715 554.606C173.569 572.375 150.934 580.385 126.108 582.4C107.384 584.23 88.4839 582.233 70.5549 576.53C47.4784 568.91 33.0777 553.545 26.752 530.17C21.7868 511.835 19.3838 493.376 24.4373 474.669C31.5051 448.89 48.8744 433.366 74.1949 427.725C121.655 417.117 167.19 422.262 208.996 448.713C249.23 474.156 265.892 530.4 244.83 570.289C228.927 600.506 203.094 617.498 169.469 622.342C146.781 625.613 124.553 624.11 103.844 613.024C100.558 611.256 97.5718 608.94 94.3912 606.942C93.4193 606.405 92.4162 605.927 91.3874 605.51ZM151.252 478.064C162.03 475.641 170.547 483.174 170.211 494.861C169.823 507.786 159.133 520.994 146.411 524.212C135.915 526.881 127.451 520.446 127.08 509.501C126.656 496.664 138.777 480.893 151.252 478.064ZM38.944 480.38C40.9937 475.199 44.563 472.105 53.0797 472.229C57.0907 472.406 62.2326 475.712 65.8019 481.052C71.4031 489.557 74.6543 498.768 71.5445 509.147C69.1414 517.493 61.1193 520.994 53.2387 517.245C41.1704 511.499 33.9082 492.757 38.944 480.38Z" fill="white"/>
<path d="M627.783 505.788C603.169 409.637 576.223 315.167 527.066 228.741C544.736 220.643 555.338 223.525 570.41 239.863C582.779 253.318 590.5 269.32 596.826 286.134C607.569 314.76 625.504 336.561 654.553 348.018C655.804 348.658 657.019 349.367 658.193 350.14C655.436 352.262 653.457 354.472 650.983 355.621C641.459 360.112 632.095 358.61 622.977 354.154C620.786 353.093 618.789 351.643 616.598 350.618C611.297 348.178 606.12 348.019 602.215 352.952C598.31 357.885 599.406 363.065 603.417 367.362C609.124 373.497 615.238 379.261 621.175 385.184C636.229 400.143 649.163 416.321 653.934 437.804C659.412 462.451 650.047 490.493 631.405 503.648C630.236 504.424 629.027 505.138 627.783 505.788Z" fill="white"/>
<path d="M191.804 186.448C214.403 176.511 226.524 156.549 239.512 137.418C265.468 99.3328 301.355 84.7635 346.589 92.1896C356.908 93.9577 355.813 94.1168 356.573 104.814C357.651 119.949 353.534 131.636 342.914 143.094C331.8 155.082 324.661 170.747 310.155 179.817C306.002 182.434 301.461 184.432 297.097 186.713L294.8 185.316C296.567 177.537 297.857 169.651 300.101 162.013C301.567 156.991 304.359 152.359 306.497 147.532C308.936 142.015 308.264 136.923 303.228 133.387C298.192 129.85 293.263 131.371 289.093 135.774C279.215 146.153 269.815 157.079 259.178 166.61C242.127 181.886 222.072 189.966 198.66 188.57C196.539 188.446 194.419 188.181 192.299 187.969L191.804 186.448Z" fill="white"/>
<path d="M160.086 199.442C131.09 193.643 108.844 179.71 93.7899 155.239C91.1754 150.9 88.8725 146.38 86.8987 141.713C83.7182 134.464 84.0186 133.509 92.0406 132.448C110.204 129.749 128.751 131.496 146.092 137.54C162.304 143.204 177.106 152.298 189.489 164.204C183.021 166.838 177.685 169.508 172.013 171.276C156.305 175.891 152.524 183.883 160.086 199.442Z" fill="white"/>
<path d="M511.906 33.5938C537.386 80.0069 513.938 136.498 465.152 145.993C465.665 135.031 466.919 124.051 466.407 113.177C465.965 104.955 468.174 100.482 475.401 95.973C497.982 81.9518 508.672 60.2747 511.906 33.5938Z" fill="white"/>
<path d="M237.285 105.078L212.548 138.124C181.944 122.812 162.49 75.9573 187.245 33.0273C188.113 48.5752 193.209 63.5905 201.982 76.4523C210.834 89.3596 223.344 97.8642 237.285 105.078Z" fill="white"/>
<path d="M369.949 283.428C370.073 298.386 358.958 309.95 344.628 309.95C341.262 310.027 337.916 309.421 334.79 308.17C331.664 306.919 328.824 305.047 326.44 302.669C324.056 300.29 322.178 297.453 320.919 294.328C319.66 291.204 319.046 287.857 319.113 284.489C319.007 269.036 329.362 257.808 343.851 257.596C347.285 257.482 350.706 258.07 353.905 259.324C357.104 260.579 360.014 262.473 362.457 264.89C364.9 267.308 366.824 270.199 368.112 273.387C369.4 276.574 370.025 279.991 369.949 283.428Z" fill="black"/>
<path d="M410.571 65.1741C411.962 65.1555 413.34 65.4403 414.61 66.0087C415.879 66.5772 417.01 67.4156 417.923 68.4656C418.836 69.5156 419.51 70.7521 419.897 72.0891C420.284 73.426 420.376 74.8313 420.165 76.2072C419.83 79.0497 419.13 81.837 418.08 84.4996C410.129 106.601 409.652 128.968 415.324 151.688C417.091 158.761 415.112 163.835 410.288 165.833C404.157 168.468 398.308 165.25 395.852 157.328C390.006 138.927 388.942 119.339 392.76 100.413C394.527 91.3599 397.407 82.5017 400.146 73.6611C401.665 68.7457 404.722 65.068 410.571 65.1741Z" fill="black"/>
<path d="M202.105 277.858C201.505 293.771 191.291 304.645 177.509 302.612C172.783 301.774 168.448 299.445 165.14 295.964C155.457 285.567 157.189 266.366 167.968 257.065C170.464 254.953 173.441 253.489 176.637 252.801C179.833 252.113 183.149 252.223 186.292 253.121C189.436 254.02 192.31 255.678 194.661 257.951C197.012 260.224 198.767 263.041 199.773 266.153C200.806 270 201.585 273.91 202.105 277.858Z" fill="black"/>
<path d="M170.212 494.861C169.823 507.786 159.133 520.994 146.411 524.212C135.897 526.881 127.451 520.446 127.08 509.501C126.656 496.664 138.777 480.893 151.252 478.064C162.031 475.624 170.547 483.174 170.212 494.861Z" fill="black"/>
<path d="M53.079 472.227C57.09 472.404 62.2318 475.764 65.748 481.068C71.3493 489.573 74.5828 498.749 71.4906 509.163C68.9992 517.509 61.0656 521.01 53.185 517.261C41.1166 511.515 33.8544 492.791 38.8902 480.396C40.9929 475.198 44.5622 472.086 53.079 472.227Z" fill="black"/>
</g>
<defs>
<clipPath id="clip0_27201_8">
<rect width="678" height="698" fill="white"/>
</clipPath>
</defs>
</svg>
