<svg width="738" height="738" viewBox="0 0 738 738" fill="none" xmlns="http://www.w3.org/2000/svg">
<g clip-path="url(#clip0_27201_23)">
<path d="M176.04 239.124C166.339 234.862 156.515 231.45 147.556 226.446C122.536 212.478 104.566 192.233 95.6075 164.562C90.1299 147.659 95.9256 136.997 113.136 132.736C139.64 126.247 165.226 130.261 190.228 140.056C192.189 140.834 194.151 141.559 195.423 142.054C192.172 131.162 187.648 120.501 185.917 109.432C181.252 79.5686 189.875 52.6048 206.944 28.2225C212.05 20.9201 219.931 18.4978 226.663 20.708C234.119 23.148 237.954 29.7077 238.431 39.5207C238.855 48.0961 238.855 56.8837 240.887 65.1408C246.506 87.7904 262.797 100.627 283.736 108.318C285.697 109.025 288.86 107.735 290.98 106.55C321.019 89.5408 352.718 83.5646 386.52 92.7765C390.761 93.9434 391.821 91.9808 392.951 88.586C399.135 69.9049 408.314 52.3542 420.127 36.621C421.98 34.1484 424.049 31.8466 426.312 29.7431C435.464 21.0616 444.6 20.9025 453.682 29.7431C465.768 41.6425 474.656 55.8935 481.723 71.2054C485.77 80.046 489.039 89.1165 493.403 99.9197C498.881 94.4739 504.5 89.9829 508.74 84.431C517.133 73.4156 520.879 60.5437 521.251 46.6993C521.357 42.9509 521.25 39.1848 521.498 35.4364C521.624 32.3209 522.672 29.3132 524.509 26.7948C526.346 24.2764 528.89 22.3609 531.817 21.2914C534.537 19.9795 537.599 19.552 540.575 20.0689C543.55 20.5857 546.289 22.0209 548.409 24.1735C551.927 27.4937 554.907 31.3411 557.243 35.5778C574.595 67.846 580.656 100.998 564.082 136.573C572.227 134.628 579.525 132.665 586.928 131.145C603.441 127.873 620.459 128.139 636.863 131.923C654.408 135.706 661.353 147.712 655.84 165.057C647.005 193.046 628.152 213.274 604.28 229.346C603.555 229.841 602.796 230.265 602.071 230.743C601.912 230.866 601.841 231.114 601.347 231.998C603.467 233.766 605.729 235.764 607.99 237.691C624.936 252.102 635.255 270.861 643.754 291.053C648.579 302.386 654.23 313.349 660.663 323.852C667.519 335.115 678.333 342.276 690.366 347.315C700.243 351.47 707.629 357.075 707.93 368.833C708.248 381.316 701.233 388.972 690.931 394.17C686.374 396.195 681.708 397.966 676.955 399.474C683.316 409.252 690.295 418.57 695.791 428.701C716.376 466.645 708.972 512.369 677.185 537.476C666 546.316 657.483 555.033 651.617 568.754C642.004 591.297 623.734 608.289 605.941 624.892C568.375 659.944 523.981 686.857 475.539 703.944C452.887 712.024 429.846 719.15 405.232 717.718C391.67 717.207 378.603 712.486 367.843 704.209C351.516 691.426 346.198 673.656 348.707 653.977C351.145 634.758 356.181 615.892 358.814 596.672C361.588 576.392 363.001 555.9 364.733 535.46C365.086 531.429 364.15 527.274 363.62 521.015C354.114 528.246 345.544 533.975 337.893 540.747C320.471 556.129 307.219 574.854 296.634 595.435C270.466 646.304 217.81 672.896 161.003 663.896C134.233 659.653 110.945 649.062 95.2541 626.182C89.8948 618.504 82.7915 612.208 74.5277 607.812C51.2745 594.604 39.3476 573.156 33.711 547.837C27.2969 518.911 27.9507 490.55 44.5424 464.735C50.6915 455.188 58.6781 446.718 66.3644 438.214C108.4 392.013 139.835 339.694 158.246 279.755C160.334 272.547 162.83 265.463 165.72 258.538C168.636 252.084 172.453 245.86 176.04 239.124ZM305.628 542.179C311.318 536.751 316.813 531.358 322.468 526.142C343.989 506.233 368.408 492.548 397.97 488.039C445.784 480.772 476.087 452.376 490.099 406.706C493.633 395.301 493.385 382.783 495.665 370.937C496.407 367.065 498.898 362.096 502.026 360.558C504.853 359.09 510.631 360.257 513.299 362.468C515.967 364.678 516.939 369.54 516.833 373.076C516.422 395.897 510.788 418.319 500.365 438.62C485.54 467.37 463.86 489.047 433.344 500.398C420.233 505.278 406.221 507.948 392.457 510.813C386.52 512.05 384.452 514.066 385.212 520.254C388.145 544.159 385.778 567.87 381.519 591.403C377.826 611.808 373.409 632.07 369.928 652.527C366.217 674.24 376.996 690.436 398.005 694.962C404.92 696.335 412.001 696.668 419.014 695.952C447.939 693.088 474.585 682.621 500.612 670.35C549.292 647.364 591.222 615.768 624.494 573.103C634.442 560.373 641.086 546.582 636.597 529.59C632.692 514.879 629.795 499.868 625.324 485.387C613.344 446.488 601.453 407.395 588.218 368.85C574.559 329.174 558.18 290.558 535.068 255.213C534.175 253.608 532.851 252.284 531.247 251.39C529.642 250.497 527.82 250.07 525.986 250.157C519.148 250.164 512.315 249.763 505.525 248.954C496.69 247.717 492.891 243.296 493.863 236.772C494.834 230.248 498.616 228.038 507.751 228.25C519.643 228.515 531.675 229.417 543.426 228.144C585.515 223.582 616.384 202.559 634.283 163.607C638.276 154.908 637.817 153.388 628.982 152.132C592.583 146.952 560.247 155.863 533.071 181.129C527.435 186.434 522.788 192.64 517.787 198.528C514.518 202.364 510.26 205.423 505.772 202.806C502.485 200.879 500.63 196.353 498.404 192.834C497.897 191.555 497.616 190.197 497.573 188.821C489.657 188.096 485.205 191.367 483.031 198.634C481.859 202.411 480.119 205.988 477.872 209.242C473.967 214.953 467.27 215.166 462.605 210.144C458.541 205.759 459.071 201.18 461.51 196.123C477.677 163.254 480.345 129.341 468.577 94.5799C462.317 76.5464 452.579 59.9182 439.917 45.6384C417.424 74.8124 404.931 106.639 407.176 143.15C407.812 153.865 410.586 164.368 412.476 174.976C413.607 181.483 411.116 186.717 405.868 188.52C400.143 190.483 394.877 187.777 392.103 181.448C391.29 179.573 390.637 177.628 389.577 174.906C384.594 182.261 380.477 189.05 375.653 195.31C364.044 210.303 349.467 221.478 331.214 227.224C320.241 230.672 311.777 226.641 307.713 216.173C306.3 211.65 305.19 207.036 304.391 202.364C301.423 204.433 298.914 206.113 296.475 207.916C273.293 224.979 247.743 233.094 218.729 229.328C215.599 229.222 212.552 230.353 210.248 232.476C194.186 247.752 183.885 266.547 177.683 287.712C163.889 334.172 141.733 377.722 112.305 416.218C110.397 418.747 108.771 421.523 106.563 424.811C109.125 424.67 110.68 424.811 112.164 424.493C148.883 417.933 186.703 421.741 221.38 435.491C259.034 450.29 286.351 475.733 298.985 515.056C301.812 523.914 303.42 532.985 305.628 542.179ZM121.387 625.51C122.416 625.928 123.419 626.406 124.391 626.943C127.572 628.941 130.558 631.257 133.845 633.025C154.553 644.182 176.782 645.614 199.469 642.343C233.042 637.498 258.875 620.507 274.83 590.29C295.892 550.401 279.23 494.157 238.996 468.714C197.19 442.192 151.656 437.171 104.195 447.726C78.8745 453.366 61.4169 468.944 54.4374 494.67C49.3839 513.376 51.7869 531.8 56.7521 550.171C63.0778 573.492 77.4785 588.91 100.555 596.531C118.484 602.234 137.384 604.231 156.108 602.401C180.934 600.386 203.569 592.376 221.715 574.606C228.448 568.011 234.084 560.267 240.18 553.071C244.439 548.067 249.351 546.971 254.192 549.888C259.405 553.035 260.73 558.092 257.885 564.281C257.144 565.881 256.263 567.414 255.252 568.86C235.392 597.008 208.764 615.255 174.75 621.002C157.716 623.884 140.206 624.025 121.387 625.51ZM657.783 525.789C659.05 525.153 660.283 524.45 661.476 523.685C680.118 510.53 689.483 482.487 684.005 457.84C679.234 436.357 666.335 420.179 651.246 405.221C645.309 399.297 639.195 393.533 633.488 387.398C629.477 383.101 628.346 377.939 632.286 372.988C636.226 368.037 641.386 368.214 646.669 370.654C648.86 371.662 650.857 373.112 653.048 374.19C662.165 378.646 671.53 380.149 681.054 375.658C683.528 374.508 685.507 372.298 688.263 370.177C687.09 369.403 685.875 368.695 684.624 368.055C655.575 356.58 637.64 334.779 626.897 306.171C620.571 289.356 612.761 273.354 600.481 259.899C585.479 243.562 574.86 240.68 557.137 248.778C606.223 335.168 633.17 429.638 657.783 525.789ZM221.804 206.449L222.316 208.005C224.437 208.217 226.557 208.482 228.677 208.606C252.001 210.003 272.144 201.922 289.196 186.646C299.797 177.116 309.233 166.189 319.11 155.81C323.316 151.407 328.139 149.922 333.246 153.423C338.352 156.924 338.953 162.016 336.515 167.568C334.377 172.395 331.585 177.027 330.118 182.049C327.892 189.687 326.585 197.573 324.818 205.353L327.114 206.749C331.479 204.468 335.949 202.471 340.172 199.854C354.679 190.783 361.818 175.1 372.932 163.13C383.534 151.672 387.668 139.985 386.59 124.85C385.831 114.153 386.926 113.923 376.607 112.226C331.461 104.8 295.486 119.298 269.529 157.454C256.524 176.55 244.403 196.512 221.804 206.449ZM190.087 219.444C182.524 203.797 186.359 195.893 202.014 191.296C207.686 189.616 213.022 186.876 219.489 184.224C207.107 172.318 192.305 163.224 176.092 157.56C158.752 151.516 140.205 149.768 122.041 152.468C114.019 153.529 113.719 154.484 116.899 161.733C118.873 166.4 121.176 170.92 123.791 175.259C138.933 199.712 161.091 213.645 190.087 219.444ZM541.906 53.595C538.673 80.3466 527.982 102.024 505.401 115.974C498.121 120.483 495.965 124.956 496.407 133.178C496.99 144.052 495.665 155.032 495.152 165.994C543.938 156.429 567.386 99.9373 541.906 53.595ZM267.285 125.151C253.344 117.937 240.781 109.432 231.946 96.5249C223.173 83.6631 218.078 68.6478 217.21 53.0999C192.472 96.0298 211.909 142.885 242.513 158.197L267.285 125.151Z" fill="black"/>
<path d="M399.949 303.428C400.073 318.386 388.958 329.95 374.628 329.95C371.262 330.027 367.916 329.421 364.79 328.17C361.664 326.919 358.824 325.047 356.44 322.669C354.056 320.29 352.178 317.453 350.919 314.328C349.66 311.204 349.046 307.857 349.113 304.489C349.007 289.036 359.362 277.808 373.851 277.596C377.285 277.482 380.706 278.07 383.905 279.324C387.104 280.579 390.014 282.473 392.457 284.89C394.9 287.308 396.824 290.199 398.112 293.387C399.4 296.574 400.025 299.991 399.949 303.428Z" fill="black"/>
<path d="M440.571 85.1741C441.962 85.1555 443.34 85.4403 444.61 86.0087C445.879 86.5772 447.01 87.4156 447.923 88.4656C448.836 89.5156 449.51 90.7521 449.897 92.0891C450.284 93.426 450.376 94.8313 450.165 96.2072C449.83 99.0497 449.13 101.837 448.08 104.5C440.129 126.601 439.652 148.968 445.324 171.688C447.091 178.761 445.112 183.835 440.288 185.833C434.157 188.468 428.308 185.25 425.852 177.328C420.006 158.927 418.942 139.339 422.76 120.413C424.527 111.36 427.407 102.502 430.146 93.6611C431.665 88.7457 434.722 85.068 440.571 85.1741Z" fill="black"/>
<path d="M232.105 297.858C231.505 313.771 221.291 324.645 207.509 322.612C202.783 321.774 198.448 319.445 195.14 315.964C185.457 305.567 187.189 286.366 197.968 277.065C200.464 274.953 203.441 273.489 206.637 272.801C209.833 272.113 213.149 272.223 216.292 273.121C219.436 274.02 222.31 275.678 224.661 277.951C227.012 280.224 228.767 283.041 229.773 286.153C230.806 290 231.585 293.91 232.105 297.858Z" fill="black"/>
<path d="M200.212 514.861C199.823 527.786 189.133 540.994 176.411 544.212C165.897 546.881 157.451 540.446 157.08 529.501C156.656 516.664 168.777 500.893 181.252 498.064C192.031 495.624 200.547 503.174 200.212 514.861Z" fill="black"/>
<path d="M83.079 492.227C87.09 492.404 92.2318 495.764 95.748 501.068C101.349 509.573 104.583 518.749 101.491 529.163C98.9992 537.509 91.0656 541.01 83.185 537.261C71.1166 531.515 63.8544 512.791 68.8902 500.396C70.9929 495.198 74.5622 492.086 83.079 492.227Z" fill="black"/>
</g>
<defs>
<clipPath id="clip0_27201_23">
<rect width="678" height="698" fill="white" transform="translate(30 20)"/>
</clipPath>
</defs>
</svg>
